# xmcd CD database file
#
# Track frame offsets:
#	150
#	26196
#	44380
#	70859
#	87037
#	110506
#	130101
#	140914
#	172848
#	186541
#	237175
#	273147
#	300225
#	315136
#	331271
#
# Disc length: 4689 seconds
#
# Revision: 0
# Processed by: cddbd v1.5.2PL0 Copyright (c) Steve Scherf et al.
# Submitted via: CDex 1.70beta2
#
DISCID=c5124f0f
DTITLE=Various Artist - Les Trésors Du Jazz 1954 (10)
DYEAR=2006
DGENRE=Jazz
TTITLE0=Sarah Vaughan, September Song
TTITLE1=Sarah Vaughan, Lullaby Of Birdland
TTITLE2=Sarah Vaughan, Jim
TTITLE3=Nisse Engström, Groovin' Doctor
TTITLE4=Helen Merrill, Don't Explain
TTITLE5=Helen Merrill, You'd Be So Nice To Come Home To
TTITLE6=Al Cohn, Lullaby Of Birdland
TTITLE7=Modern Jazz Quartet, Django
TTITLE8=Modern Jazz Quartet, One Bass Hit
TTITLE9=Miles Davis, Bag's Groove
TTITLE10=Miles Davis, The Man I Love
TTITLE11=helen Merrill, Yesterdays
TTITLE12=Tony Scott, Lullaby Of Birdland
TTITLE13=Lennie Tristano, Line Up
TTITLE14=Lennie Tristano, East Thirty-Second
EXTD=YEAR: 2006
EXTT0=
EXTT1=
EXTT2=
EXTT3=
EXTT4=
EXTT5=
EXTT6=
EXTT7=
EXTT8=
EXTT9=
EXTT10=
EXTT11=
EXTT12=
EXTT13=
EXTT14=
PLAYORDER=
